<?xml version="1.0" encoding="UTF-8" standalone="no"?> <svg xmlns="http://www.w3.org/2000/svg" xmlns:xlink="http://www.w3.org/1999/xlink" viewBox="0 0 72 72"><defs><style>.cls-1{fill:url(#linear-gradient);}.cls-2{fill:url(#linear-gradient-2);}.cls-3{fill:url(#linear-gradient-3);}.cls-4{fill:url(#linear-gradient-4);}.cls-5{fill:url(#linear-gradient-5);}.cls-6{fill:url(#linear-gradient-6);}.cls-7{fill:url(#linear-gradient-7);}.cls-8{fill:url(#linear-gradient-8);}.cls-9{fill:url(#linear-gradient-9);}.cls-10{opacity:0.5;fill:url(#linear-gradient-10);}.cls-11{fill:url(#linear-gradient-11);}.cls-12{fill:url(#linear-gradient-12);}</style><linearGradient id="linear-gradient" x1="36" y1="15.206" x2="36" y2="24.212" gradientUnits="userSpaceOnUse"><stop offset="0" stop-color="#db686b"/><stop offset="1" stop-color="#c23542"/></linearGradient><linearGradient id="linear-gradient-2" x1="47" y1="15.206" x2="47" y2="24.212" xlink:href="#linear-gradient"/><linearGradient id="linear-gradient-3" x1="25" y1="15.206" x2="25" y2="24.212" xlink:href="#linear-gradient"/><linearGradient id="linear-gradient-4" x1="25" y1="8.089" x2="25" y2="13.884" gradientUnits="userSpaceOnUse"><stop offset="0" stop-color="#fed200"/><stop offset="1" stop-color="#f59815"/></linearGradient><linearGradient id="linear-gradient-5" x1="36" y1="8.089" x2="36" y2="13.884" xlink:href="#linear-gradient-4"/><linearGradient id="linear-gradient-6" x1="47" y1="8.089" x2="47" y2="13.884" xlink:href="#linear-gradient-4"/><linearGradient id="linear-gradient-7" x1="36" y1="21.381" x2="36" y2="52.25" gradientUnits="userSpaceOnUse"><stop offset="0" stop-color="#faeae1"/><stop offset="1" stop-color="#edc2a8"/></linearGradient><linearGradient id="linear-gradient-8" x1="36" y1="22.112" x2="36" y2="29.384" gradientUnits="userSpaceOnUse"><stop offset="0" stop-color="#8a552e"/><stop offset="1" stop-color="#543426"/></linearGradient><linearGradient id="linear-gradient-9" x1="36" y1="36.536" x2="36" y2="59.687" xlink:href="#linear-gradient-7"/><linearGradient id="linear-gradient-10" x1="36" y1="42.054" x2="36" y2="58.306" gradientUnits="userSpaceOnUse"><stop offset="0" stop-color="#edc2a8"/><stop offset="1" stop-color="#d69769"/></linearGradient><linearGradient id="linear-gradient-11" x1="36" y1="37.14" x2="36" y2="46.23" xlink:href="#linear-gradient-8"/><linearGradient id="linear-gradient-12" y1="59.429" x2="36" y2="64.803" xlink:href="#linear-gradient"/></defs><title>Birthday Cake</title><g id="Birthday_Cake" data-name="Birthday Cake"><rect class="cls-1" x="34" y="15" width="4" height="12" rx="1"/><rect class="cls-2" x="45" y="15" width="4" height="12" rx="1"/><rect class="cls-3" x="23" y="15" width="4" height="12" rx="1"/><path class="cls-4" d="M27,12.375a16.223,16.223,0,0,0-1.55-4.092.5.5,0,0,0-.9,0A16.223,16.223,0,0,0,23,12.375a2,2,0,0,0,4,0Z"/><path class="cls-5" d="M38,12.375a16.223,16.223,0,0,0-1.55-4.092.5.5,0,0,0-.9,0A16.223,16.223,0,0,0,34,12.375a2,2,0,0,0,4,0Z"/><path class="cls-6" d="M49,12.375a16.223,16.223,0,0,0-1.55-4.092.5.5,0,0,0-.9,0A16.223,16.223,0,0,0,45,12.375a2,2,0,0,0,4,0Z"/><path class="cls-7" d="M52,22H20c-2.209,0-4,1.791-4,3V49c0,3.209,1.791,5,4,5H52c2.209,0,4-1.791,4-5V25C56,23.791,54.209,22,52,22Z"/><path class="cls-8" d="M52,22H20a4,4,0,0,0-4,4v.059a3.416,3.416,0,0,1,1.475.866l2.05,2.05a3.5,3.5,0,0,0,4.95,0l2.05-2.05a3.5,3.5,0,0,1,4.95,0l2.05,2.05a3.5,3.5,0,0,0,4.95,0l2.05-2.05a3.5,3.5,0,0,1,4.95,0l2.05,2.05a3.5,3.5,0,0,0,4.95,0l2.05-2.05A3.416,3.416,0,0,1,56,26.059V26A4,4,0,0,0,52,22Z"/><path class="cls-9" d="M57,37H15a4,4,0,0,0-4,4V61H61V41A4,4,0,0,0,57,37Z"/><rect class="cls-10" x="11" y="51" width="50" height="3"/><path class="cls-11" d="M57,37H15a4,4,0,0,0-4,4v4.45l1.525-1.525a3.5,3.5,0,0,1,4.95,0l2.05,2.05a3.5,3.5,0,0,0,4.95,0l2.05-2.05a3.5,3.5,0,0,1,4.95,0l2.05,2.05a3.5,3.5,0,0,0,4.95,0l2.05-2.05a3.5,3.5,0,0,1,4.95,0l2.05,2.05a3.5,3.5,0,0,0,4.95,0l2.05-2.05a3.5,3.5,0,0,1,4.95,0L61,45.45V41A4,4,0,0,0,57,37Z"/><path class="cls-12" d="M62,65H10a4,4,0,0,1-4-4H6a2,2,0,0,1,2-2H64a2,2,0,0,1,2,2h0A4,4,0,0,1,62,65Z"/></g></svg>