<?xml version="1.0" encoding="UTF-8" standalone="no"?> <svg id="Layer_1" data-name="Layer 1" xmlns="http://www.w3.org/2000/svg" viewBox="0 0 48 48"><defs><style>.cls-1{fill:#8fa5a5;}.cls-2{fill:#7b8c8c;}.cls-3{fill:#c6512b;}.cls-4{fill:#e67244;}.cls-5{fill:#2d4a60;}.cls-6{fill:#263f52;}</style></defs><title>Press Conference</title><path class="cls-1" d="M31.069,18.936A9.888,9.888,0,0,0,24,16,10.011,10.011,0,0,0,14,26v2a1,1,0,0,0,1,1H33a1,1,0,0,0,1-1V26A9.884,9.884,0,0,0,31.069,18.936Z"/><path class="cls-2" d="M17,28V26a10.007,10.007,0,0,1,8.507-9.876A10.178,10.178,0,0,0,24,16,10.011,10.011,0,0,0,14,26v2a1,1,0,0,0,1,1h3A1,1,0,0,1,17,28Z"/><circle class="cls-1" cx="24" cy="10.5" r="6.5"/><path class="cls-2" d="M25.5,15A6,6,0,0,1,21.568,4.475a6.5,6.5,0,1,0,8.457,8.457A5.98,5.98,0,0,1,25.5,15Z"/><path class="cls-3" d="M39.709,30.354A1,1,0,0,0,38.946,30H9.054a1,1,0,0,0-.988,1.156l1.36,8.623A4.977,4.977,0,0,0,14.365,44H33.558a4.984,4.984,0,0,0,4.932-4.178l1.443-8.657A1,1,0,0,0,39.709,30.354Z"/><path class="cls-1" d="M38,27a1,1,0,0,1-1-1V22.657a3.02,3.02,0,0,0-.878-2.121l-1.561-1.561a1,1,0,0,1,1.414-1.414l1.561,1.561A4.966,4.966,0,0,1,39,22.657V26A1,1,0,0,1,38,27Z"/><path class="cls-1" d="M10,27a1,1,0,0,1-1-1V22.657a4.966,4.966,0,0,1,1.464-3.535l1.561-1.561a1,1,0,0,1,1.414,1.414l-1.561,1.561A3.02,3.02,0,0,0,11,22.657V26A1,1,0,0,1,10,27Z"/><rect class="cls-4" x="4" y="25" width="40" height="7" rx="3"/><path class="cls-5" d="M35.975,15.439l-1.414-1.414a2.562,2.562,0,0,0-3.536,0,2.5,2.5,0,0,0,0,3.536l1.414,1.414a2.5,2.5,0,0,0,3.536,0h0a2.5,2.5,0,0,0,0-3.536Z"/><path class="cls-6" d="M35.207,18.707a2.487,2.487,0,0,1-1.768-.732l-1.414-1.414a2.467,2.467,0,0,1-.427-2.942,2.35,2.35,0,0,0-.573.406,2.5,2.5,0,0,0,0,3.536l1.414,1.414a2.5,2.5,0,0,0,3.536,0h0a2.515,2.515,0,0,0,.42-.58A2.476,2.476,0,0,1,35.207,18.707Z"/><path class="cls-5" d="M13.439,14.025l-1.414,1.414a2.5,2.5,0,0,0,0,3.536h0a2.5,2.5,0,0,0,3.536,0l1.414-1.414a2.5,2.5,0,0,0,0-3.536A2.562,2.562,0,0,0,13.439,14.025Z"/><path class="cls-6" d="M16.975,14.025a2.331,2.331,0,0,0-.573-.406,2.467,2.467,0,0,1-.427,2.942l-1.414,1.414a2.469,2.469,0,0,1-2.956.42,2.515,2.515,0,0,0,.42.58h0a2.5,2.5,0,0,0,3.536,0l1.414-1.414a2.5,2.5,0,0,0,0-3.536Z"/></svg>