<svg id="SvgjsSvg1013" width="288" height="288" xmlns="http://www.w3.org/2000/svg" version="1.1" xmlns:xlink="http://www.w3.org/1999/xlink" xmlns:svgjs="http://svgjs.com/svgjs"><defs id="SvgjsDefs1014"></defs><g id="SvgjsG1015"><svg xmlns="http://www.w3.org/2000/svg" width="288" height="288" fill-rule="evenodd" stroke-linejoin="round" stroke-miterlimit="2" clip-rule="evenodd"><path d="M250,58.333C250,52.808 247.805,47.509 243.898,43.602C239.991,39.695 234.692,37.5 229.167,37.5C187.5,37.5 79.167,37.5 37.5,37.5C31.975,37.5 26.676,39.695 22.769,43.602C18.862,47.509 16.667,52.808 16.667,58.333C16.667,93.196 16.667,173.47 16.667,208.333C16.667,213.859 18.862,219.158 22.769,223.065C26.676,226.972 31.975,229.167 37.5,229.167C79.167,229.167 187.5,229.167 229.167,229.167C234.692,229.167 239.991,226.972 243.898,223.065C247.805,219.158 250,213.859 250,208.333L250,58.333ZM241.667,58.333L241.667,208.333C241.667,211.649 240.35,214.828 238.006,217.172C235.661,219.516 232.482,220.833 229.167,220.833C187.5,220.833 79.167,220.833 37.5,220.833C34.185,220.833 31.005,219.516 28.661,217.172C26.317,214.828 25,211.649 25,208.333C25,173.47 25,93.196 25,58.333C25,55.018 26.317,51.839 28.661,49.494C31.005,47.15 34.185,45.833 37.5,45.833C79.167,45.833 187.5,45.833 229.167,45.833C232.482,45.833 235.661,47.15 238.006,49.494C240.35,51.839 241.667,55.018 241.667,58.333Z" fill="#f05252" class="color000 svgShape"></path><path d="M20.833 79.167L245.833 79.167C248.133 79.167 250 77.3 250 75 250 72.7 248.133 70.833 245.833 70.833L20.833 70.833C18.534 70.833 16.667 72.7 16.667 75 16.667 77.3 18.534 79.167 20.833 79.167zM229.167 54.167L225 54.167C222.7 54.167 220.833 56.034 220.833 58.333 220.833 60.633 222.7 62.5 225 62.5L229.167 62.5C231.466 62.5 233.333 60.633 233.333 58.333 233.333 56.034 231.466 54.167 229.167 54.167zM208.333 54.167L204.167 54.167C201.867 54.167 200 56.034 200 58.333 200 60.633 201.867 62.5 204.167 62.5L208.333 62.5C210.633 62.5 212.5 60.633 212.5 58.333 212.5 56.034 210.633 54.167 208.333 54.167zM100 54.167L37.5 54.167C35.2 54.167 33.333 56.034 33.333 58.333 33.333 60.633 35.2 62.5 37.5 62.5L100 62.5C102.3 62.5 104.167 60.633 104.167 58.333 104.167 56.034 102.3 54.167 100 54.167zM138.258 140.909C138.258 143.21 140.123 145.076 142.424 145.076L183.333 145.076C185.635 145.076 187.5 143.21 187.5 140.909 187.5 116.031 167.302 95.833 142.424 95.833 140.123 95.833 138.258 97.699 138.258 100L138.258 140.909zM146.591 136.742L146.591 104.401C163.543 106.318 177.016 119.79 178.933 136.743L146.591 136.742z" fill="#f05252" class="color000 svgShape"></path><path d="M128.409,118.182C128.409,115.881 126.544,114.015 124.242,114.015C99.364,114.015 79.167,134.213 79.167,159.091C79.167,183.969 99.364,204.167 124.242,204.167C149.12,204.167 169.318,183.969 169.318,159.091C169.318,156.79 167.453,154.924 165.152,154.924L128.409,154.924C128.409,154.924 128.409,118.182 128.409,118.182ZM120.076,122.583L120.076,159.091C120.076,161.392 121.941,163.258 124.242,163.258L160.751,163.258C158.679,181.577 143.113,195.833 124.242,195.833C103.964,195.833 87.5,179.37 87.5,159.091C87.5,140.221 101.756,124.654 120.076,122.583L120.076,122.583Z" fill="#f05252" class="color000 svgShape"></path></svg></g></svg>