<svg id="SvgjsSvg1028" width="288" height="288" xmlns="http://www.w3.org/2000/svg" version="1.1" xmlns:xlink="http://www.w3.org/1999/xlink" xmlns:svgjs="http://svgjs.com/svgjs"><defs id="SvgjsDefs1029"></defs><g id="SvgjsG1030"><svg xmlns="http://www.w3.org/2000/svg" viewBox="0 0 64 64" width="288" height="288"><g data-name="Free" fill="#000000" class="color000 svgShape"><path fill="#ffffff" d="M23.684,47.328a1,1,0,0,1-.707-.293l-6.013-6.012a1,1,0,0,1,0-1.414l3.25-3.25a1,1,0,0,1,1.414,1.414l-2.543,2.543,5.306,5.305a1,1,0,0,1-.707,1.707Z" class="color37e288 svgShape"></path><path fill="#ffffff" d="M20.678 44.322a1 1 0 0 1-.707-1.707l2.323-2.323a1 1 0 0 1 1.414 1.414l-2.323 2.323A1 1 0 0 1 20.678 44.322zM29.406 41.606a.993.993 0 0 1-.707-.293l-3-3-.013-.012-3-3a1 1 0 0 1 0-1.414l1.747-1.747A3.126 3.126 0 0 1 28.911 36.5l3.7-.144a.98.98 0 0 1 1.038.96 1 1 0 0 1-.96 1.038l-3.97.155L30.113 39.9a1 1 0 0 1-.707 1.707zm-4.6-7.011L26.4 36.187l1.04-1.04a1.126 1.126 0 0 0-1.592-1.592zM35.127 35.885a1 1 0 0 1-.707-.293l-6.012-6.013a1 1 0 0 1 0-1.414l3.249-3.249a1 1 0 0 1 1.414 1.414l-2.542 2.542 4.6 4.6 2.543-2.542a1 1 0 0 1 1.414 1.414l-3.25 3.249A1 1 0 0 1 35.127 35.885z" class="color37e288 svgShape"></path><path fill="#ffffff" d="M32.121 32.879a1 1 0 0 1-.707-1.707L33.7 28.89A1 1 0 0 1 35.11 30.3l-2.282 2.282A1 1 0 0 1 32.121 32.879zM40.849 30.163a1 1 0 0 1-.707-.293L34.13 23.857a1 1 0 0 1 0-1.414l3.249-3.249a1 1 0 0 1 1.414 1.414L36.251 23.15l4.6 4.6 2.543-2.542a1 1 0 1 1 1.414 1.414l-3.25 3.249A1 1 0 0 1 40.849 30.163z" class="color37e288 svgShape"></path><path fill="#ffffff" d="M37.843,27.157a1,1,0,0,1-.707-1.707l2.282-2.282a1,1,0,0,1,1.414,1.414L38.55,26.864A.993.993,0,0,1,37.843,27.157Z" class="color37e288 svgShape"></path><path fill="#546e7a" d="M24.654,57.332a5.98,5.98,0,0,1-4.243-1.754L8.422,43.589a6.007,6.007,0,0,1,0-8.485l6.647-6.648a1,1,0,0,1,1.414,1.414L9.836,36.518a4.006,4.006,0,0,0,0,5.657L21.825,54.164a4.006,4.006,0,0,0,5.657,0L54.164,27.482a4.018,4.018,0,0,0,1.047-3.817L52.628,13.537a3,3,0,0,0-2.166-2.166L40.334,8.788a4.023,4.023,0,0,0-3.816,1.048l-14.51,14.51a1,1,0,0,1-1.414-1.414L35.1,8.422a6.021,6.021,0,0,1,5.725-1.571L50.957,9.434a5,5,0,0,1,3.609,3.609l2.583,10.128A6.024,6.024,0,0,1,55.578,28.9L28.9,55.578A5.978,5.978,0,0,1,24.654,57.332Z" class="color546e7a svgShape"></path><path fill="#546e7a" d="M18.783 27.157a1 1 0 0 1-.708-1.707l.534-.534a1 1 0 0 1 1.415 1.414l-.534.534A.993.993 0 0 1 18.783 27.157zM47.937 19.353a3.264 3.264 0 0 1-2.326-.964h0a3.288 3.288 0 1 1 2.327.964zm0-4.579a1.289 1.289 0 0 0-.912 2.2h0a1.318 1.318 0 0 0 1.823 0 1.289 1.289 0 0 0-.911-2.2z" class="color546e7a svgShape"></path></g></svg></g></svg>