<?xml version="1.0" encoding="UTF-8" standalone="no"?> <svg xmlns="http://www.w3.org/2000/svg" viewBox="0 0 32 32"><defs><style>.cls-1{fill:#2d4a60;}.cls-2{fill:#e67244;}</style></defs><title>Meeting</title><g id="Meeting"><circle class="cls-1" cx="22" cy="6.5" r="2.5"/><circle class="cls-1" cx="10" cy="6.5" r="2.5"/><path class="cls-1" d="M25.75,12.75h0A3.75,3.75,0,0,0,22,9h0a3.75,3.75,0,0,0-3.75,3.75h0A1.25,1.25,0,0,0,19.5,14h5A1.25,1.25,0,0,0,25.75,12.75Z"/><path class="cls-1" d="M6.25,12.75h0A3.75,3.75,0,0,1,10,9h0a3.75,3.75,0,0,1,3.75,3.75h0A1.25,1.25,0,0,1,12.5,14h-5A1.25,1.25,0,0,1,6.25,12.75Z"/><path class="cls-2" d="M9,24A6,6,0,0,1,9,12H23a6,6,0,0,1,0,12Z"/><circle class="cls-1" cx="22" cy="21.5" r="2.5"/><circle class="cls-1" cx="10" cy="21.5" r="2.5"/><path class="cls-1" d="M25.75,27.75h0A3.75,3.75,0,0,0,22,24h0a3.75,3.75,0,0,0-3.75,3.75h0A1.25,1.25,0,0,0,19.5,29h5A1.25,1.25,0,0,0,25.75,27.75Z"/><path class="cls-1" d="M6.25,27.75h0A3.75,3.75,0,0,1,10,24h0a3.75,3.75,0,0,1,3.75,3.75h0A1.25,1.25,0,0,1,12.5,29h-5A1.25,1.25,0,0,1,6.25,27.75Z"/></g></svg>