<?xml version="1.0" encoding="UTF-8" standalone="no"?> <svg xmlns="http://www.w3.org/2000/svg" viewBox="0 0 32 32"><defs><style>.cls-1{fill:#2d4a60;}.cls-2{fill:#a754ba;}.cls-3{fill:#009ae0;}.cls-4{fill:#263f52;}</style></defs><title>Night Club</title><g id="Night_Club" data-name="Night Club"><path class="cls-1" d="M16,8a1,1,0,0,1-1-1V3a1,1,0,0,1,2,0V7A1,1,0,0,1,16,8Z"/><path class="cls-2" d="M7,4.5H6.5V4a1,1,0,0,0-2,0v.5H4a1,1,0,0,0,0,2h.5V7a1,1,0,0,0,2,0V6.5H7a1,1,0,0,0,0-2Z"/><path class="cls-2" d="M29,26.5h-.5V26a1,1,0,0,0-2,0v.5H26a1,1,0,0,0,0,2h.5V29a1,1,0,0,0,2,0v-.5H29a1,1,0,0,0,0-2Z"/><circle class="cls-3" cx="26" cy="6" r="1"/><circle class="cls-3" cx="5" cy="27" r="1"/><circle class="cls-3" cx="16" cy="17" r="11"/><path class="cls-2" d="M15.69,6.01c-2.2.21-4.09,2.58-5.03,5.99H6.2A10.96,10.96,0,0,1,15.69,6.01Z"/><path class="cls-2" d="M15.69,27.99A10.96,10.96,0,0,1,6.2,22h4.46C11.6,25.41,13.49,27.78,15.69,27.99Z"/><path class="cls-2" d="M27,17H22a18.669,18.669,0,0,0-.66-5H25.8A10.915,10.915,0,0,1,27,17Z"/><path class="cls-2" d="M16,12v5H10a18.669,18.669,0,0,1,.66-5Z"/><path class="cls-2" d="M22,17a18.669,18.669,0,0,1-.66,5H16V17Z"/><path class="cls-4" d="M16,5A12,12,0,1,0,28,17,12.013,12.013,0,0,0,16,5Zm9.159,16H22.608a19.933,19.933,0,0,0,.363-3h2.978A9.893,9.893,0,0,1,25.159,21ZM6.841,13H9.392a19.933,19.933,0,0,0-.363,3H6.051A9.893,9.893,0,0,1,6.841,13ZM17,11V7.211A6.456,6.456,0,0,1,19.962,11Zm3.563,2a17.894,17.894,0,0,1,.411,3H17V13ZM15,7.211V11H12.038A6.456,6.456,0,0,1,15,7.211ZM15,13v3H11.026a17.894,17.894,0,0,1,.411-3ZM6.051,18H9.029a19.933,19.933,0,0,0,.363,3H6.841A9.893,9.893,0,0,1,6.051,18Zm4.975,0H15v3H11.437A17.894,17.894,0,0,1,11.026,18ZM15,23v3.789A6.456,6.456,0,0,1,12.038,23Zm2,3.789V23h2.962A6.456,6.456,0,0,1,17,26.789ZM17,21V18h3.974a17.894,17.894,0,0,1-.411,3Zm5.971-5a19.933,19.933,0,0,0-.363-3h2.551a9.893,9.893,0,0,1,.79,3Zm1.01-5h-1.9a13.016,13.016,0,0,0-1.262-2.754A10.055,10.055,0,0,1,23.981,11Zm-12.8-2.754A13.016,13.016,0,0,0,9.915,11h-1.9A10.055,10.055,0,0,1,11.177,8.246ZM8.019,23h1.9a13.016,13.016,0,0,0,1.262,2.754A10.055,10.055,0,0,1,8.019,23Zm12.8,2.754A13.016,13.016,0,0,0,22.085,23h1.9A10.055,10.055,0,0,1,20.823,25.754Z"/></g></svg>