<svg id="SvgjsSvg1011" width="288" height="288" xmlns="http://www.w3.org/2000/svg" version="1.1" xmlns:xlink="http://www.w3.org/1999/xlink" xmlns:svgjs="http://svgjs.com/svgjs"><defs id="SvgjsDefs1012"></defs><g id="SvgjsG1013"><svg xmlns="http://www.w3.org/2000/svg" data-name="Layer 1" viewBox="0 0 32 32" width="288" height="288"><path d="M16,15.19a2,2,0,1,0,2,2A2,2,0,0,0,16,15.19Zm0,3a1,1,0,1,1,1-1A1,1,0,0,1,16,18.19ZM27.783,6.063A23.046,23.046,0,0,1,21.314,3.83a23.124,23.124,0,0,1-3.826-2.514,2.481,2.481,0,0,0-3.048-.03,27.6,27.6,0,0,1-3.8,2.375,27.527,27.527,0,0,1-6.49,2.377A1.483,1.483,0,0,0,3,7.5V15.69a16.614,16.614,0,0,0,12.862,16.1A.509.509,0,0,0,16,31.81a.514.514,0,0,0,.109-.012A16.612,16.612,0,0,0,29,15.69V7.533A1.493,1.493,0,0,0,27.783,6.063ZM28,15.69A15.607,15.607,0,0,1,16,30.8,15.609,15.609,0,0,1,4,15.69V7.5a.489.489,0,0,1,.376-.483A28.533,28.533,0,0,0,11.1,4.55a28.6,28.6,0,0,0,3.936-2.462,1.483,1.483,0,0,1,1.821.006,24.161,24.161,0,0,0,3.992,2.623A24.022,24.022,0,0,0,27.6,7.045a.488.488,0,0,1,.4.488Zm-8.5-2.5H19v-1a3,3,0,1,0-6,0v1h-.5a1.5,1.5,0,0,0-1.5,1.5v5a1.5,1.5,0,0,0,1.5,1.5h7a1.5,1.5,0,0,0,1.5-1.5v-5A1.5,1.5,0,0,0,19.5,13.19Zm-5.5-1a2,2,0,0,1,4,0v1H14Zm6,7.5a.5.5,0,0,1-.5.5h-7a.5.5,0,0,1-.5-.5v-5a.5.5,0,0,1,.5-.5h7a.5.5,0,0,1,.5.5Zm4.793-11.4a17.461,17.461,0,0,1-4.7-1.649,17.4,17.4,0,0,1-3.17-2.13,1.466,1.466,0,0,0-1.861-.037,20.758,20.758,0,0,1-3.189,2.038A20.776,20.776,0,0,1,7.142,8.271,1.489,1.489,0,0,0,6,9.727v6.038a12.749,12.749,0,0,0,9.856,12.351.514.514,0,0,0,.253.009A12.748,12.748,0,0,0,26,15.765v-6A1.5,1.5,0,0,0,24.793,8.294ZM25,15.765a11.741,11.741,0,0,1-9,11.357A11.742,11.742,0,0,1,7,15.765V9.727a.492.492,0,0,1,.374-.482A21.839,21.839,0,0,0,12.333,7.4a21.806,21.806,0,0,0,3.343-2.137.481.481,0,0,1,.6.011,18.438,18.438,0,0,0,3.352,2.253A18.431,18.431,0,0,0,24.6,9.274a.494.494,0,0,1,.4.489Z" fill="#f05252" class="color000 svgShape"></path></svg></g></svg>