<svg id="SvgjsSvg1012" width="288" height="288" xmlns="http://www.w3.org/2000/svg" version="1.1" xmlns:xlink="http://www.w3.org/1999/xlink" xmlns:svgjs="http://svgjs.com/svgjs"><defs id="SvgjsDefs1013"></defs><g id="SvgjsG1014"><svg xmlns="http://www.w3.org/2000/svg" enable-background="new 0 0 64 64" viewBox="0 0 64 64" width="288" height="288"><path fill="#f05252" d="M10.748209 38.8200073H5.4480286c-.660058 0-1.2000561.5299683-1.2000561 1.1999512v8.2800293C4.2479725 48.9599609 4.7879705 49.5 5.4480286 49.5h5.3001804c.659997 0 1.2000561-.5400391 1.2000561-1.2000122v-8.2800293C11.9482651 39.3499756 11.408206 38.8200073 10.748209 38.8200073zM9.9481926 47.5H6.2480454v-6.6799927h3.7001472V47.5zM20.3885746 36.2299805h-5.3001804c-.660059 0-1.2000561.5300293-1.2000561 1.2000122v10.8699951c0 .6599731.5399971 1.2000122 1.2000561 1.2000122h5.3001804c.659996 0 1.2000561-.5400391 1.2000561-1.2000122V37.4299927C21.5886307 36.7600098 21.0485706 36.2299805 20.3885746 36.2299805zM19.5885582 47.5h-3.7001476v-9.2700195h3.7001476V47.5zM30.0388889 33.2000122h-5.3001804c-.6599979 0-1.2000561.5299683-1.2000561 1.1999512v13.9000244c0 .6599731.5400581 1.2000122 1.2000561 1.2000122h5.3001804c.6600571 0 1.2000561-.5400391 1.2000561-1.2000122V34.3999634C31.238945 33.7299805 30.698946 33.2000122 30.0388889 33.2000122zM29.2388725 47.5h-3.7001476V35.2000122h3.7001476V47.5zM39.6792526 29.0199585h-5.3001785c-.6600609 0-1.200058.5400391-1.200058 1.2000122v18.0800171c0 .6599731.5399971 1.2000122 1.200058 1.2000122h5.3001785c.6600609 0 1.200058-.5400391 1.200058-1.2000122V30.2199707C40.8793106 29.5599976 40.3393135 29.0199585 39.6792526 29.0199585zM38.8792381 47.5h-3.7001495V31.0199585h3.7001495V47.5zM49.329628 24.9799805h-5.3001785c-.6600609 0-1.200058.539978-1.200058 1.2000122v22.1199951c0 .6599731.5399971 1.2000122 1.200058 1.2000122h5.3001785c.6599998 0 1.200058-.5400391 1.200058-1.2000122V26.1799927C50.529686 25.5199585 49.9896278 24.9799805 49.329628 24.9799805zM48.5296135 47.5H44.829464V26.9799805h3.7001495V47.5zM58.6899567 22.5599976h-5.3001823c-.6600571 0-1.2000542.539978-1.2000542 1.2000122v24.539978c0 .6599731.5399971 1.2000122 1.2000542 1.2000122h5.3001823c.659996 0 1.2000542-.5400391 1.2000542-1.2000122v-24.539978C59.8900108 23.0999756 59.3499527 22.5599976 58.6899567 22.5599976zM57.8899384 47.5h-3.7001457V24.5599976h3.7001457V47.5z" class="color57585b svgShape"></path><path fill="#f05252" d="M56.5299034,14.5c-1.5700645,0-2.8801117,1.0599976-3.3101807,2.4899902h-5.6801987
		c-0.2199783,0-0.4199982,0.0599976-0.6100082,0.1599731l-8.3803062,6.7800293h-5.0001831
		c-0.2999992-1.6199951-1.7100239-2.8599854-3.4100971-2.8599854c-1.9101048,0-3.4701576,1.5700073-3.4701576,3.4899902
		c0,0.3800049,0.0700092,0.7299805,0.1799984,1.0700073l-6.9202347,3.8999634h-3.3500977
		c-0.4300079-1.4400024-1.7400532-2.4899902-3.3101177-2.4899902c-1.9201136,0-3.4701576,1.5599976-3.4701576,3.4899902
		c0,0.2900391,0.04004,0.5700073,0.1099892,0.8400269l-5.4301901,3.3200073
		c-0.4699879,0.289978-0.6200178,0.8999634-0.329968,1.3800049c0.1799994,0.3099976,0.5099673,0.4699707,0.8500066,0.4699707
		c0.1799989,0,0.3599982-0.039978,0.5200381-0.1400146l5.4101701-3.3099976
		c0.620018,0.5700073,1.4400549,0.9299927,2.3401117,0.9299927c1.5700645,0,2.8801098-1.0499878,3.3101177-2.4899902h3.5601273
		l0.3499889-0.0199585l7.5002728-4.2300415c0.5900478,0.4800415,1.3400745,0.7700195,2.1501026,0.7700195
		c1.4300442,0,2.6700802-0.8699951,3.2001286-2.1199951h5.4901886c0.2099686,0,0.4199982-0.0599976,0.5999985-0.1600342
		l8.3903198-6.7799683h5.4001579c0.430069,1.4400024,1.7401161,2.4899902,3.3101807,2.4899902
		C58.4399452,21.4799805,60,19.9199829,60,17.9899902C60,16.0700073,58.4399452,14.5,56.5299034,14.5z M13.2683201,32.0199585
		c-0.8100271,0-1.4700851-0.6699829-1.4700851-1.4899902s0.660058-1.4899902,1.4700851-1.4899902
		s1.4700241,0.6699829,1.4700241,1.4899902S14.0783472,32.0199585,13.2683201,32.0199585z M30.1389294,26.0499878
		c-0.8100281,0-1.4700851-0.6599731-1.4700851-1.4899902c0-0.8200073,0.6600571-1.4899902,1.4700851-1.4899902
		c0.8100262,0,1.4700241,0.6699829,1.4700241,1.4899902C31.6089535,25.3900146,30.9489555,26.0499878,30.1389294,26.0499878z
		 M56.5299034,19.4799805c-0.8200378,0-1.4800949-0.6599731-1.4800949-1.4899902
		c0-0.8200073,0.6600571-1.4899902,1.4800949-1.4899902c0.8100281,0,1.4700241,0.6699829,1.4700241,1.4899902
		C57.9999275,18.8200073,57.3399315,19.4799805,56.5299034,19.4799805z" class="color57585b svgShape"></path></svg></g></svg>