<svg viewBox="0 0 30 30" xml:space="preserve" xmlns="http://www.w3.org/2000/svg" enable-background="new 0 0 30 30"><circle cx="7" cy="6" r="3" fill="#2d3e50" class="fill-000000"></circle><path d="M16 12H9" fill="none" stroke="#2d3e50" stroke-width="2" stroke-linecap="round" stroke-linejoin="round" stroke-miterlimit="10" class="stroke-000000"></path><path d="M10 25.967a1.033 1.033 0 0 1-2.064.068l-.438-6.57a.5.5 0 0 0-.996.001l-.438 6.57A1.034 1.034 0 0 1 4 25.967V13a2 2 0 0 1 2-2h6v2h-1a1 1 0 0 0-1 1v11.967z" fill="#2d3e50" class="fill-000000"></path><path d="M12 18h13V6H12" fill="none" stroke="#2d3e50" stroke-width="2" stroke-linejoin="round" stroke-miterlimit="10" class="stroke-000000"></path><path d="M17 6V5M13 26l2-8M21 26l-2-8" fill="none" stroke="#2d3e50" stroke-width="2" stroke-linecap="round" stroke-linejoin="round" stroke-miterlimit="10" class="stroke-000000"></path></svg>