<svg id="Layer_1" data-name="Layer 1" xmlns="http://www.w3.org/2000/svg" viewBox="0 0 128 128"><defs><style>.cls-1{fill:#2d3e50;}.cls-2{fill:#1d75b8;}</style></defs><title>v</title><path class="cls-1" d="M125.95127,108.11547c-.43653-2.41438-1.38727-7.606-1.60692-8.265-1.22882-3.673-4.512-5.1875-7.85986-6.48664q-3.87263-1.50288-7.74627-3.003l-7.3359,7.33456-7.33594-7.33456q-3.87311,1.50148-7.74627,3.003c-3.34785,1.29915-6.631,2.81362-7.85982,6.48664-.21969.659-1.17044,5.8506-1.60692,8.265a1.04085,1.04085,0,0,0,1.02441,1.2263h47.04908A1.0409,1.0409,0,0,0,125.95127,108.11547Z" id="id_101"></path><path class="cls-1" d="M101.403,57.90991h-.90756A10.54425,10.54425,0,0,0,90.049,69.87508l1.52808,7.87644a10.01,10.01,0,0,0,19.65175,0l1.52808-7.87644a10.54428,10.54428,0,0,0-10.44642-11.96517Z" id="id_102"></path><path class="cls-1" d="M49.53972,99.85049c-1.22882-3.673-4.512-5.1875-7.85982-6.48664q-3.87263-1.50288-7.74631-3.003l-7.3359,7.33456-7.3359-7.33456q-3.87318,1.50148-7.74631,3.003c-3.34785,1.29915-6.631,2.81362-7.85982,6.48664-.21969.659-1.17044,5.8506-1.60692,8.265a1.04087,1.04087,0,0,0,1.02441,1.2263H50.12223a1.0409,1.0409,0,0,0,1.02441-1.2263C50.71016,105.70109,49.75937,100.50948,49.53972,99.85049Z" id="id_103"></path><path class="cls-1" d="M11.17393,83.67407a56.63452,56.63452,0,0,0,6.94912,1.58875.18443.18443,0,0,0,.05341.00668c.89448.14684,1.79569.27367,2.69017.37382.04005.00668,2.70353.17357,5.73419.20694,3.03066-.03337,5.69414-.20025,5.73419-.20694.89448-.10015,1.79569-.227,2.69017-.37382a.18443.18443,0,0,0,.05341-.00668,56.63452,56.63452,0,0,0,6.94912-1.58875,2.33926,2.33926,0,0,0,1.55534-2.97725L38.61656,65.89746a12.673,12.673,0,0,0-24.03147,0L9.61859,80.69683A2.33926,2.33926,0,0,0,11.17393,83.67407Z" id="id_104"></path><path class="cls-2" d="M84.12949,77.1365c.81438-.84779,1.62212-1.7089,2.40981-2.5767v-.00668l-.78769-4.092a14.87449,14.87449,0,0,1,14.746-16.88878h1.81569c.16689,0,.34045,0,.50734.01332a26.00833,26.00833,0,0,0,3.845-12.87017,22.0589,22.0589,0,0,0-37.656-15.59379L63.99644,30.1216l-5.00656-4.99992a22.05888,22.05888,0,0,0-37.656,15.59379,25.54438,25.54438,0,0,0,3.518,12.28941A16.96619,16.96619,0,0,1,42.7286,64.52L47.6951,79.31933a6.5856,6.5856,0,0,1,.34045,2.016A115.42532,115.42532,0,0,0,61.066,92.30969a4.087,4.087,0,0,0,5.86767,0A122.60293,122.60293,0,0,0,84.12949,77.1365Z" id="id_105" style="fill: rgb(212, 30, 75);"></path></svg>